<svg xmlns="http://www.w3.org/2000/svg" height="596pt" version="1.1" viewBox="1 -19 596.717 596" width="596pt">
<g id="surface1">
<path d="M 39.800781 10.316406 L 477.597656 10.316406 C 494.085938 10.316406 507.449219 23.679688 507.449219 40.167969 L 507.449219 438.167969 C 507.449219 454.65625 494.085938 468.019531 477.597656 468.019531 L 39.800781 468.019531 C 23.3125 468.019531 9.949219 454.65625 9.949219 438.167969 L 9.949219 40.167969 C 9.949219 23.679688 23.3125 10.316406 39.800781 10.316406 Z M 39.800781 10.316406 " style=" stroke:none;fill-rule:nonzero;fill:rgb(26.27451%,59.607843%,81.960784%);fill-opacity:1;" />
<path d="M 39.800781 40.167969 L 59.699219 40.167969 L 59.699219 60.066406 L 39.800781 60.066406 Z M 39.800781 40.167969 " style=" stroke:none;fill-rule:nonzero;fill:rgb(24.313725%,54.901961%,78.039216%);fill-opacity:1;" />
<path d="M 79.597656 40.167969 L 99.5 40.167969 L 99.5 60.066406 L 79.597656 60.066406 Z M 79.597656 40.167969 " style=" stroke:none;fill-rule:nonzero;fill:rgb(24.313725%,54.901961%,78.039216%);fill-opacity:1;" />
<path d="M 119.402344 40.167969 L 139.300781 40.167969 L 139.300781 60.066406 L 119.402344 60.066406 Z M 119.402344 40.167969 " style=" stroke:none;fill-rule:nonzero;fill:rgb(24.313725%,54.901961%,78.039216%);fill-opacity:1;" />
<path d="M 119.402344 89.917969 L 557.199219 89.917969 C 573.6875 89.917969 587.050781 103.28125 587.050781 119.765625 L 587.050781 517.765625 C 587.050781 534.253906 573.6875 547.617188 557.199219 547.617188 L 119.402344 547.617188 C 102.914062 547.617188 89.550781 534.253906 89.550781 517.765625 L 89.550781 119.765625 C 89.550781 103.28125 102.914062 89.917969 119.402344 89.917969 Z M 119.402344 89.917969 " style=" stroke:none;fill-rule:nonzero;fill:rgb(52.941176%,80.784314%,85.098039%);fill-opacity:1;" />
<path d="M 557.199219 89.917969 L 537.296875 89.917969 L 93.988281 533.230469 C 99.351562 542.144531 108.992188 547.605469 119.398438 547.617188 L 557.199219 547.617188 C 573.6875 547.617188 587.050781 534.253906 587.050781 517.765625 L 587.050781 119.765625 C 587.050781 103.28125 573.6875 89.917969 557.199219 89.917969 Z M 557.199219 89.917969 " style=" stroke:none;fill-rule:nonzero;fill:rgb(44.313725%,76.862745%,81.960784%);fill-opacity:1;" />
<path d="M 119.402344 119.765625 L 139.300781 119.765625 L 139.300781 139.667969 L 119.402344 139.667969 Z M 119.402344 119.765625 " style=" stroke:none;fill-rule:nonzero;fill:rgb(36.862745%,70.196078%,81.960784%);fill-opacity:1;" />
<path d="M 159.199219 119.765625 L 179.101562 119.765625 L 179.101562 139.667969 L 159.199219 139.667969 Z M 159.199219 119.765625 " style=" stroke:none;fill-rule:nonzero;fill:rgb(36.862745%,70.196078%,81.960784%);fill-opacity:1;" />
<path d="M 199 119.765625 L 218.902344 119.765625 L 218.902344 139.667969 L 199 139.667969 Z M 199 119.765625 " style=" stroke:none;fill-rule:nonzero;fill:rgb(36.862745%,70.196078%,81.960784%);fill-opacity:1;" />
<path d="M 119.402344 159.566406 L 557.199219 159.566406 L 557.199219 179.46875 L 119.402344 179.46875 Z M 119.402344 159.566406 " style=" stroke:none;fill-rule:nonzero;fill:rgb(36.862745%,70.196078%,81.960784%);fill-opacity:1;" />
<path d="M 119.402344 209.316406 L 199 209.316406 L 199 229.21875 L 119.402344 229.21875 Z M 119.402344 209.316406 " style=" stroke:none;fill-rule:nonzero;fill:rgb(36.862745%,70.196078%,81.960784%);fill-opacity:1;" />
<path d="M 119.402344 249.117188 L 179.101562 249.117188 L 179.101562 269.019531 L 119.402344 269.019531 Z M 119.402344 249.117188 " style=" stroke:none;fill-rule:nonzero;fill:rgb(36.862745%,70.196078%,81.960784%);fill-opacity:1;" />
<path d="M 487.550781 388.417969 L 487.550781 328.71875 L 453.789062 328.71875 C 451.011719 317.929688 446.734375 307.601562 441.074219 298.011719 L 464.953125 274.132812 L 422.734375 231.914062 L 398.855469 255.792969 C 389.265625 250.132812 378.9375 245.855469 368.148438 243.078125 L 368.148438 209.316406 L 308.449219 209.316406 L 308.449219 243.078125 C 297.664062 245.855469 287.335938 250.132812 277.746094 255.792969 L 253.863281 231.914062 L 211.644531 274.132812 L 235.527344 298.011719 C 229.863281 307.59375 225.585938 317.929688 222.808594 328.71875 L 189.050781 328.71875 L 189.050781 388.417969 L 222.808594 388.417969 C 225.585938 399.203125 229.863281 409.53125 235.527344 419.121094 L 211.644531 443.003906 L 253.863281 485.222656 L 277.746094 461.339844 C 287.335938 467.003906 297.664062 471.28125 308.449219 474.058594 L 308.449219 507.816406 L 368.148438 507.816406 L 368.148438 474.058594 C 378.9375 471.28125 389.265625 467.003906 398.855469 461.339844 L 422.734375 485.222656 L 464.953125 443.003906 L 441.074219 419.121094 C 446.734375 409.53125 451.011719 399.203125 453.789062 388.417969 Z M 338.300781 418.265625 C 305.324219 418.265625 278.597656 391.542969 278.597656 358.566406 C 278.597656 325.59375 305.324219 298.867188 338.300781 298.867188 C 371.273438 298.867188 398 325.59375 398 358.566406 C 398 391.542969 371.273438 418.265625 338.300781 418.265625 Z M 338.300781 418.265625 " style=" stroke:none;fill-rule:nonzero;fill:rgb(89.019608%,29.411765%,52.941176%);fill-opacity:1;" />
<path d="M 497.5 497.867188 L 557.199219 497.867188 L 557.199219 517.765625 L 497.5 517.765625 Z M 497.5 497.867188 " style=" stroke:none;fill-rule:nonzero;fill:rgb(36.862745%,70.196078%,81.960784%);fill-opacity:1;" />
<path d="M 441.074219 298.011719 L 464.953125 274.132812 L 445.351562 254.519531 C 428.050781 279.582031 408.875 303.304688 388 325.484375 C 406.21875 352.964844 398.695312 390.007812 371.214844 408.226562 C 349.113281 422.875 319.992188 421.191406 299.734375 404.089844 C 275.238281 422.394531 249.664062 439.230469 223.167969 454.496094 L 253.882812 485.210938 L 277.765625 461.332031 C 287.347656 466.992188 297.675781 471.28125 308.449219 474.058594 L 308.449219 507.816406 L 368.148438 507.816406 L 368.148438 474.058594 C 378.9375 471.28125 389.265625 467.003906 398.855469 461.339844 L 422.734375 485.222656 L 464.953125 443.003906 L 441.074219 419.121094 C 446.734375 409.53125 451.011719 399.203125 453.789062 388.417969 L 487.550781 388.417969 L 487.550781 328.71875 L 453.789062 328.71875 C 451.011719 317.933594 446.734375 307.601562 441.074219 298.011719 Z M 441.074219 298.011719 " style=" stroke:none;fill-rule:nonzero;fill:rgb(85.098039%,28.235294%,50.588235%);fill-opacity:1;" />
<path d="M 89.550781 119.765625 L 89.550781 468.015625 L 59.699219 468.015625 L 59.699219 149.617188 C 59.699219 133.128906 73.0625 119.765625 89.550781 119.765625 Z M 89.550781 119.765625 " style=" stroke:none;fill-rule:nonzero;fill:rgb(24.313725%,54.901961%,78.039216%);fill-opacity:1;" />
<path d="M 39.800781 477.96875 L 59.699219 477.96875 L 59.699219 458.066406 L 39.800781 458.066406 C 28.804688 458.066406 19.898438 449.160156 19.898438 438.167969 L 19.898438 40.167969 C 19.898438 29.171875 28.804688 20.265625 39.800781 20.265625 L 477.597656 20.265625 C 488.59375 20.265625 497.5 29.171875 497.5 40.167969 L 497.5 60.066406 L 517.402344 60.066406 L 517.402344 40.167969 C 517.402344 18.1875 499.578125 0.367188 477.601562 0.367188 L 39.800781 0.367188 C 17.820312 0.367188 0 18.1875 0 40.167969 L 0 438.167969 C 0 460.148438 17.820312 477.96875 39.800781 477.96875 Z M 39.800781 477.96875 " style=" stroke:none;fill-rule:nonzero;fill:rgb(0%,0%,0%);fill-opacity:1;" />
<path d="M 39.800781 40.167969 L 59.699219 40.167969 L 59.699219 60.066406 L 39.800781 60.066406 Z M 39.800781 40.167969 " style=" stroke:none;fill-rule:nonzero;fill:rgb(0%,0%,0%);fill-opacity:1;" />
<path d="M 79.597656 40.167969 L 99.5 40.167969 L 99.5 60.066406 L 79.597656 60.066406 Z M 79.597656 40.167969 " style=" stroke:none;fill-rule:nonzero;fill:rgb(0%,0%,0%);fill-opacity:1;" />
<path d="M 119.402344 40.167969 L 139.300781 40.167969 L 139.300781 60.066406 L 119.402344 60.066406 Z M 119.402344 40.167969 " style=" stroke:none;fill-rule:nonzero;fill:rgb(0%,0%,0%);fill-opacity:1;" />
<path d="M 79.597656 517.765625 C 79.597656 539.746094 97.421875 557.566406 119.398438 557.566406 L 557.199219 557.566406 C 579.179688 557.566406 597 539.746094 597 517.765625 L 597 119.765625 C 597 97.789062 579.179688 79.96875 557.199219 79.96875 L 119.402344 79.96875 C 97.421875 79.96875 79.601562 97.789062 79.601562 119.765625 L 79.601562 517.765625 Z M 99.5 119.765625 C 99.5 108.773438 108.40625 99.867188 119.402344 99.867188 L 557.199219 99.867188 C 568.195312 99.867188 577.101562 108.773438 577.101562 119.765625 L 577.101562 517.765625 C 577.101562 528.761719 568.195312 537.667969 557.199219 537.667969 L 119.402344 537.667969 C 108.40625 537.667969 99.5 528.761719 99.5 517.765625 Z M 99.5 119.765625 " style=" stroke:none;fill-rule:nonzero;fill:rgb(0%,0%,0%);fill-opacity:1;" />
<path d="M 119.402344 119.765625 L 139.300781 119.765625 L 139.300781 139.667969 L 119.402344 139.667969 Z M 119.402344 119.765625 " style=" stroke:none;fill-rule:nonzero;fill:rgb(0%,0%,0%);fill-opacity:1;" />
<path d="M 159.199219 119.765625 L 179.101562 119.765625 L 179.101562 139.667969 L 159.199219 139.667969 Z M 159.199219 119.765625 " style=" stroke:none;fill-rule:nonzero;fill:rgb(0%,0%,0%);fill-opacity:1;" />
<path d="M 199 119.765625 L 218.902344 119.765625 L 218.902344 139.667969 L 199 139.667969 Z M 199 119.765625 " style=" stroke:none;fill-rule:nonzero;fill:rgb(0%,0%,0%);fill-opacity:1;" />
<path d="M 119.402344 159.566406 L 557.199219 159.566406 L 557.199219 179.46875 L 119.402344 179.46875 Z M 119.402344 159.566406 " style=" stroke:none;fill-rule:nonzero;fill:rgb(0%,0%,0%);fill-opacity:1;" />
<path d="M 119.402344 209.316406 L 199 209.316406 L 199 229.21875 L 119.402344 229.21875 Z M 119.402344 209.316406 " style=" stroke:none;fill-rule:nonzero;fill:rgb(0%,0%,0%);fill-opacity:1;" />
<path d="M 119.402344 249.117188 L 179.101562 249.117188 L 179.101562 269.019531 L 119.402344 269.019531 Z M 119.402344 249.117188 " style=" stroke:none;fill-rule:nonzero;fill:rgb(0%,0%,0%);fill-opacity:1;" />
<path d="M 338.300781 288.917969 C 299.832031 288.917969 268.648438 320.101562 268.648438 358.566406 C 268.648438 397.035156 299.832031 428.21875 338.300781 428.21875 C 376.765625 428.21875 407.949219 397.035156 407.949219 358.566406 C 407.910156 320.121094 376.746094 288.957031 338.300781 288.917969 Z M 338.300781 408.316406 C 310.828125 408.316406 288.550781 386.039062 288.550781 358.566406 C 288.550781 331.097656 310.828125 308.820312 338.300781 308.820312 C 365.773438 308.820312 388.050781 331.097656 388.050781 358.566406 C 388.019531 386.027344 365.761719 408.289062 338.300781 408.316406 Z M 338.300781 408.316406 " style=" stroke:none;fill-rule:nonzero;fill:rgb(0%,0%,0%);fill-opacity:1;" />
<path d="M 497.5 328.71875 C 497.5 323.222656 493.042969 318.765625 487.550781 318.765625 L 461.253906 318.765625 C 459.152344 312.230469 456.515625 305.871094 453.382812 299.761719 L 471.980469 281.175781 C 475.859375 277.292969 475.859375 270.988281 471.980469 267.105469 L 429.761719 224.886719 C 425.878906 221.007812 419.570312 221.007812 415.691406 224.886719 L 397.105469 243.476562 C 390.984375 240.351562 384.636719 237.722656 378.097656 235.613281 L 378.097656 209.316406 C 378.097656 203.824219 373.640625 199.367188 368.148438 199.367188 L 308.449219 199.367188 C 302.957031 199.367188 298.5 203.824219 298.5 209.316406 L 298.5 235.613281 C 291.964844 237.722656 285.613281 240.351562 279.496094 243.476562 L 260.910156 224.886719 C 257.027344 221.007812 250.71875 221.007812 246.839844 224.886719 L 204.621094 267.105469 C 200.738281 270.988281 200.738281 277.292969 204.621094 281.175781 L 223.207031 299.761719 C 222.371094 301.394531 221.574219 303.027344 220.820312 304.675781 C 218.71875 309.265625 216.890625 313.972656 215.347656 318.765625 L 189.050781 318.765625 C 183.558594 318.765625 179.097656 323.226562 179.097656 328.71875 L 179.097656 388.417969 C 179.097656 393.910156 183.558594 398.367188 189.050781 398.367188 L 215.347656 398.367188 C 217.445312 404.902344 220.082031 411.261719 223.21875 417.371094 L 204.621094 435.957031 C 200.738281 439.839844 200.738281 446.148438 204.621094 450.027344 L 246.839844 492.246094 C 250.71875 496.128906 257.027344 496.128906 260.910156 492.246094 L 279.496094 473.660156 C 285.613281 476.785156 291.960938 479.410156 298.5 481.519531 L 298.5 507.816406 C 298.5 513.308594 302.957031 517.765625 308.449219 517.765625 L 368.148438 517.765625 C 373.640625 517.765625 378.097656 513.308594 378.097656 507.816406 L 378.097656 481.519531 C 384.636719 479.410156 390.984375 476.78125 397.105469 473.660156 L 415.691406 492.246094 C 419.570312 496.125 425.878906 496.125 429.761719 492.246094 L 471.980469 450.027344 C 475.859375 446.144531 475.859375 439.839844 471.980469 435.957031 L 453.382812 417.371094 C 456.515625 411.261719 459.152344 404.902344 461.253906 398.367188 L 487.550781 398.367188 C 493.042969 398.367188 497.5 393.910156 497.5 388.417969 Z M 477.597656 378.46875 L 453.78125 378.46875 C 449.242188 378.46875 445.28125 381.542969 444.148438 385.929688 C 441.601562 395.8125 437.691406 405.28125 432.507812 414.066406 C 430.199219 417.980469 430.835938 422.945312 434.039062 426.15625 L 450.863281 442.992188 L 422.726562 471.140625 L 405.890625 454.304688 C 402.679688 451.09375 397.703125 450.464844 393.792969 452.773438 C 385.007812 457.957031 375.542969 461.878906 365.664062 464.414062 C 361.277344 465.550781 358.203125 469.507812 358.203125 474.046875 L 358.203125 497.867188 L 318.402344 497.867188 L 318.402344 474.046875 C 318.402344 469.507812 315.328125 465.550781 310.941406 464.414062 C 301.058594 461.878906 291.597656 457.957031 282.8125 452.773438 C 278.902344 450.464844 273.925781 451.09375 270.710938 454.304688 L 253.878906 471.140625 L 225.738281 442.992188 L 242.566406 426.15625 C 245.769531 422.945312 246.40625 417.980469 244.097656 414.066406 C 238.914062 405.28125 235.003906 395.808594 232.457031 385.929688 C 231.320312 381.542969 227.363281 378.46875 222.824219 378.46875 L 199.003906 378.46875 L 199.003906 338.667969 L 222.824219 338.667969 C 227.363281 338.667969 231.320312 335.59375 232.457031 331.207031 C 234.066406 324.945312 236.226562 318.835938 238.921875 312.964844 C 240.472656 309.5625 242.207031 306.242188 244.097656 303.015625 C 246.394531 299.105469 245.769531 294.140625 242.566406 290.9375 L 225.738281 274.101562 L 253.878906 245.953125 L 270.710938 262.789062 C 273.925781 266.003906 278.902344 266.628906 282.8125 264.320312 C 291.597656 259.136719 301.058594 255.21875 310.941406 252.679688 C 315.328125 251.546875 318.402344 247.585938 318.402344 243.046875 L 318.402344 219.269531 L 358.203125 219.269531 L 358.203125 243.089844 C 358.203125 247.625 361.277344 251.585938 365.664062 252.71875 C 375.546875 255.257812 385.007812 259.175781 393.792969 264.363281 C 397.703125 266.667969 402.679688 266.042969 405.890625 262.828125 L 422.726562 245.992188 L 450.863281 274.140625 L 434.039062 290.976562 C 430.835938 294.191406 430.199219 299.15625 432.507812 303.066406 C 437.691406 311.851562 441.601562 321.324219 444.148438 331.203125 C 445.285156 335.59375 449.242188 338.667969 453.78125 338.667969 L 477.601562 338.667969 L 477.601562 378.46875 Z M 477.597656 378.46875 " style=" stroke:none;fill-rule:nonzero;fill:rgb(0%,0%,0%);fill-opacity:1;" />
<path d="M 497.5 497.867188 L 557.199219 497.867188 L 557.199219 517.765625 L 497.5 517.765625 Z M 497.5 497.867188 " style=" stroke:none;fill-rule:nonzero;fill:rgb(0%,0%,0%);fill-opacity:1;" />
</g>
</svg>